<svg width="54" height="54" viewBox="0 0 54 54" fill="none" xmlns="http://www.w3.org/2000/svg">
<path fill-rule="evenodd" clip-rule="evenodd" d="M52.9045 7.71595C53.1315 7.94232 53.3115 8.21124 53.4344 8.50731C53.5572 8.80337 53.6205 9.12077 53.6205 9.44131C53.6205 9.76186 53.5572 10.0793 53.4344 10.3753C53.3115 10.6714 53.1315 10.9403 52.9045 11.1667L18.7871 45.2841C18.5608 45.511 18.2918 45.6911 17.9958 45.8139C17.6997 45.9368 17.3823 46 17.0618 46C16.7412 46 16.4238 45.9368 16.1278 45.8139C15.8317 45.6911 15.5628 45.511 15.3364 45.2841L0.71467 30.6623C0.488092 30.4357 0.30836 30.1668 0.185737 29.8707C0.0631135 29.5747 2.38739e-09 29.2574 0 28.937C-2.38739e-09 28.6165 0.0631135 28.2992 0.185737 28.0032C0.30836 27.7072 0.488092 27.4382 0.71467 27.2116C0.941248 26.985 1.21023 26.8053 1.50627 26.6827C1.80231 26.56 2.11961 26.4969 2.44004 26.4969C2.76047 26.4969 3.07776 26.56 3.3738 26.6827C3.66984 26.8053 3.93882 26.985 4.1654 27.2116L17.0618 40.1128L49.4538 7.71595C49.6802 7.489 49.9491 7.30895 50.2452 7.18609C50.5412 7.06324 50.8586 7 51.1792 7C51.4997 7 51.8171 7.06324 52.1132 7.18609C52.4092 7.30895 52.6781 7.489 52.9045 7.71595Z" fill="#406EBD"/>
</svg>
