<svg width="84" height="84" viewBox="0 0 84 84" fill="none" xmlns="http://www.w3.org/2000/svg">
<path d="M41.4708 0C18.6042 0 0 18.6917 0 41.6667C0 64.6417 18.6917 83.3333 41.6667 83.3333C64.6417 83.3333 83.3333 64.6417 83.3333 41.6667C83.3333 18.6917 64.5542 0 41.4708 0ZM41.6667 75C23.2875 75 8.33333 60.0458 8.33333 41.6667C8.33333 23.2875 23.1958 8.33333 41.4708 8.33333C59.9625 8.33333 75 23.2875 75 41.6667C75 60.0458 60.0458 75 41.6667 75Z" fill="#E9212F"/>
<path d="M37.5 20.8335H45.8333V50.0002H37.5V20.8335ZM37.5 54.1668H45.8333V62.5002H37.5V54.1668Z" fill="#E9212F"/>
</svg>
