<svg width="423" height="423" viewBox="0 0 423 423" fill="none" xmlns="http://www.w3.org/2000/svg">
<path d="M26.4375 26.4375H396.562V396.562H26.4375V26.4375Z" fill="#F5DE19"/>
<path d="M275.07 315.598C278.223 322.003 283.123 327.388 289.203 331.13C295.284 334.872 302.299 336.819 309.438 336.748C323.847 336.748 333.06 329.544 333.06 319.563C333.06 307.666 323.596 303.41 307.733 296.47L299.035 292.743C273.92 282.049 257.264 268.658 257.264 240.343C257.264 214.263 277.092 194.395 308.196 194.395C318.265 193.668 328.325 195.921 337.121 200.874C345.917 205.827 353.061 213.261 357.66 222.247L330.469 239.63C328.698 235.174 325.615 231.362 321.627 228.699C317.64 226.036 312.937 224.648 308.143 224.719C306.051 224.509 303.939 224.738 301.94 225.39C299.942 226.042 298.101 227.103 296.535 228.506C294.97 229.909 293.713 231.623 292.847 233.538C291.98 235.453 291.521 237.528 291.5 239.63C291.5 250.059 297.964 254.289 312.888 260.78L321.586 264.507C351.143 277.184 367.852 290.099 367.852 319.14C367.852 350.456 343.252 367.614 310.218 367.614C297.347 368.434 284.514 365.511 273.267 359.199C262.02 352.887 252.84 343.456 246.834 332.042L275.07 315.598ZM152.201 318.612C157.661 328.301 162.631 336.497 174.581 336.497C186.002 336.497 193.219 332.029 193.219 314.646V196.378H227.998V315.109C227.998 351.117 206.848 367.508 176.061 367.508C165.179 368.103 154.371 365.391 145.059 359.728C135.747 354.066 128.366 345.718 123.887 335.783L152.201 318.612Z" fill="black"/>
</svg>
